Hermit-Regular.ufo
<glyph name="quotedbl" format="1">
  <advance width="618"/>
  <unicode hex="0022"/>
  <note>
    quotedbl
  </note>
  <outline>
    <contour>
      <point x="465" y="410"/>
      <point x="466" y="582"/>
      <point x="466" y="672" type="curve"/>
      <point x="466" y="672"/>
      <point x="465" y="750"/>
      <point x="420" y="750" type="curve" smooth="yes"/>
      <point x="377" y="750"/>
      <point x="376" y="678"/>
      <point x="376" y="672" type="curve" smooth="yes"/>
      <point x="376" y="660" type="line" smooth="yes"/>
      <point x="376" y="568"/>
      <point x="377" y="410"/>
      <point x="420" y="410" type="curve" smooth="yes"/>
    </contour>
    <contour>
      <point x="241" y="410"/>
      <point x="242" y="582"/>
      <point x="242" y="672" type="curve"/>
      <point x="242" y="672"/>
      <point x="241" y="750"/>
      <point x="196" y="750" type="curve" smooth="yes"/>
      <point x="153" y="750"/>
      <point x="152" y="678"/>
      <point x="152" y="672" type="curve" smooth="yes"/>
      <point x="152" y="660" type="line" smooth="yes"/>
      <point x="152" y="568"/>
      <point x="153" y="410"/>
      <point x="196" y="410" type="curve" smooth="yes"/>
    </contour>
  </outline>
</glyph>
<glyph name="numbersign" format="1">
  <advance width="618"/>
  <unicode hex="0023"/>
  <note>
    numbersign
  </note>
  <outline>
    <contour>
      <point x="258" y="0" type="line"/>
      <point x="258" y="160" type="line"/>
      <point x="360" y="160" type="line"/>
      <point x="360" y="0" type="line"/>
      <point x="450" y="0" type="line"/>
      <point x="450" y="160" type="line"/>
      <point x="540" y="160" type="line"/>
      <point x="540" y="250" type="line"/>
      <point x="450" y="250" type="line"/>
      <point x="450" y="500" type="line"/>
      <point x="540" y="500" type="line"/>
      <point x="540" y="590" type="line"/>
      <point x="450" y="590" type="line"/>
      <point x="450" y="750" type="line"/>
      <point x="360" y="750" type="line"/>
      <point x="360" y="590" type="line"/>
      <point x="258" y="590" type="line"/>
      <point x="258" y="750" type="line"/>
      <point x="168" y="750" type="line"/>
      <point x="168" y="590" type="line"/>
      <point x="78" y="590" type="line"/>
      <point x="78" y="500" type="line"/>
      <point x="168" y="500" type="line"/>
      <point x="168" y="250" type="line"/>
      <point x="78" y="250" type="line"/>
      <point x="78" y="160" type="line"/>
      <point x="168" y="160" type="line"/>
      <point x="168" y="0" type="line"/>
    </contour>
    <contour>
      <point x="258" y="500" type="line"/>
      <point x="360" y="500" type="line"/>
      <point x="360" y="250" type="line"/>
      <point x="258" y="250" type="line"/>
    </contour>
  </outline>
</glyph>
<glyph name="plus" format="1">
  <advance width="618"/>
  <unicode hex="002B"/>
  <note>
    plus
  </note>
  <outline>
    <contour>
      <point x="354" y="80" type="line"/>
      <point x="354" y="285" type="line"/>
      <point x="540" y="285" type="line"/>
      <point x="540" y="375" type="line"/>
      <point x="354" y="375" type="line"/>
      <point x="354" y="580" type="line"/>
      <point x="264" y="580" type="line"/>
      <point x="264" y="375" type="line"/>
      <point x="78" y="375" type="line"/>
      <point x="78" y="285" type="line"/>
      <point x="264" y="285" type="line"/>
      <point x="264" y="80" type="line"/>
    </contour>
  </outline>
</glyph>
<glyph name="hyphen" format="1">
  <advance width="618"/>
  <unicode hex="002D"/>
  <note>
    hyphen
  </note>
  <outline>
    <contour>
      <point x="540" y="285" type="line"/>
      <point x="540" y="375" type="line"/>
      <point x="78" y="375" type="line"/>
      <point x="78" y="285" type="line"/>
    </contour>
  </outline>
</glyph>
<glyph name="period" format="1">
  <advance width="618"/>
  <unicode hex="002E"/>
  <note>
    period
  </note>
  <outline>
    <contour>
      <point x="354" y="0"/>
      <point x="399" y="45"/>
      <point x="399" y="90" type="curve" smooth="yes"/>
      <point x="399" y="135"/>
      <point x="354" y="180"/>
      <point x="309" y="180" type="curve" smooth="yes"/>
      <point x="264" y="180"/>
      <point x="219" y="135"/>
      <point x="219" y="90" type="curve" smooth="yes"/>
      <point x="219" y="45"/>
      <point x="264" y="0"/>
      <point x="309" y="0" type="curve" smooth="yes"/>
    </contour>
  </outline>
</glyph>
<glyph name="zero" format="1">
  <advance width="618"/>
  <unicode hex="0030"/>
  <note>
    zero
  </note>
  <outline>
    <contour>
      <point x="449" y="0"/>
      <point x="540" y="0"/>
      <point x="540" y="375" type="curve" smooth="yes"/>
      <point x="540" y="750"/>
      <point x="449" y="750"/>
      <point x="309" y="750" type="curve" smooth="yes"/>
      <point x="169" y="750"/>
      <point x="78" y="750"/>
      <point x="78" y="375" type="curve" smooth="yes"/>
      <point x="78" y="0"/>
      <point x="169" y="0"/>
      <point x="309" y="0" type="curve" smooth="yes"/>
    </contour>
    <contour>
      <point x="253" y="90"/>
      <point x="224" y="94"/>
      <point x="202" y="130" type="curve"/>
      <point x="445" y="500" type="line"/>
      <point x="448" y="466"/>
      <point x="450" y="426"/>
      <point x="450" y="375" type="curve" smooth="yes"/>
      <point x="450" y="90"/>
      <point x="399" y="90"/>
      <point x="309" y="90" type="curve" smooth="yes"/>
    </contour>
    <contour>
      <point x="170" y="283"/>
      <point x="168" y="324"/>
      <point x="168" y="375" type="curve" smooth="yes"/>
      <point x="168" y="660"/>
      <point x="219" y="660"/>
      <point x="309" y="660" type="curve" smooth="yes"/>
      <point x="367" y="660"/>
      <point x="394" y="656"/>
      <point x="416" y="620" type="curve"/>
      <point x="173" y="249" type="line"/>
    </contour>
  </outline>
</glyph>
<glyph name="four" format="1">
  <advance width="618"/>
  <unicode hex="0034"/>
  <note>
    four
  </note>
  <outline>
    <contour>
      <point x="540" y="0" type="line"/>
      <point x="540" y="750" type="line"/>
      <point x="429" y="750" type="line"/>
      <point x="78" y="375" type="line"/>
      <point x="78" y="285" type="line"/>
      <point x="450" y="285" type="line"/>
      <point x="450" y="0" type="line"/>
    </contour>
    <contour>
      <point x="450" y="640" type="line"/>
      <point x="450" y="375" type="line"/>
      <point x="200" y="375" type="line"/>
    </contour>
  </outline>
</glyph>
<glyph name="seven" format="1">
  <advance width="618"/>
  <unicode hex="0037"/>
  <note>
    seven
  </note>
  <outline>
    <contour>
      <point x="178" y="0" type="line"/>
      <point x="539" y="750" type="line"/>
      <point x="78" y="750" type="line"/>
      <point x="78" y="660" type="line"/>
      <point x="396" y="660" type="line"/>
      <point x="78" y="0" type="line"/>
    </contour>
  </outline>
</glyph>
<glyph name="eight" format="1">
  <advance width="618"/>
  <unicode hex="0038"/>
  <note>
    eight
  </note>
  <outline>
    <contour>
      <point x="449" y="0"/>
      <point x="540" y="102"/>
      <point x="540" y="222" type="curve" smooth="yes"/>
      <point x="540" y="340"/>
      <point x="475" y="368"/>
      <point x="449" y="398" type="curve"/>
      <point x="475" y="428"/>
      <point x="518" y="468"/>
      <point x="518" y="552" type="curve" smooth="yes"/>
      <point x="518" y="672"/>
      <point x="449" y="750"/>
      <point x="309" y="750" type="curve" smooth="yes"/>
      <point x="169" y="750"/>
      <point x="100" y="672"/>
      <point x="100" y="552" type="curve" smooth="yes"/>
      <point x="100" y="468"/>
      <point x="142" y="428"/>
      <point x="168" y="398" type="curve"/>
      <point x="142" y="368"/>
      <point x="78" y="341"/>
      <point x="78" y="222" type="curve" smooth="yes"/>
      <point x="78" y="102"/>
      <point x="169" y="0"/>
      <point x="309" y="0" type="curve" smooth="yes"/>
    </contour>
    <contour>
      <point x="219" y="90"/>
      <point x="168" y="132"/>
      <point x="168" y="222" type="curve" smooth="yes"/>
      <point x="168" y="312"/>
      <point x="219" y="354"/>
      <point x="309" y="354" type="curve" smooth="yes"/>
      <point x="399" y="354"/>
      <point x="450" y="312"/>
      <point x="450" y="222" type="curve" smooth="yes"/>
      <point x="450" y="132"/>
      <point x="399" y="90"/>
      <point x="309" y="90" type="curve" smooth="yes"/>
    </contour>
    <contour>
      <point x="239" y="444"/>
      <point x="190" y="482"/>
      <point x="190" y="552" type="curve" smooth="yes"/>
      <point x="190" y="622"/>
      <point x="239" y="660"/>
      <point x="309" y="660" type="curve" smooth="yes"/>
      <point x="379" y="660"/>
      <point x="428" y="622"/>
      <point x="428" y="552" type="curve" smooth="yes"/>
      <point x="428" y="482"/>
      <point x="379" y="444"/>
      <point x="309" y="444" type="curve" smooth="yes"/>
    </contour>
  </outline>
</glyph>
<glyph name="nine" format="1">
  <advance width="618"/>
  <unicode hex="0039"/>
  <note>
    nine
  </note>
  <outline>
    <contour>
      <point x="540" y="0" type="line"/>
      <point x="540" y="518" type="line" smooth="yes"/>
      <point x="540" y="660"/>
      <point x="449" y="750"/>
      <point x="309" y="750" type="curve" smooth="yes"/>
      <point x="169" y="750"/>
      <point x="78" y="660"/>
      <point x="78" y="518" type="curve" smooth="yes"/>
      <point x="78" y="376"/>
      <point x="169" y="285"/>
      <point x="309" y="285" type="curve" smooth="yes"/>
      <point x="365" y="285"/>
      <point x="426" y="312"/>
      <point x="450" y="336" type="curve"/>
      <point x="450" y="0" type="line"/>
    </contour>
    <contour>
      <point x="219" y="375"/>
      <point x="168" y="428"/>
      <point x="168" y="518" type="curve" smooth="yes"/>
      <point x="168" y="608"/>
      <point x="219" y="660"/>
      <point x="309" y="660" type="curve" smooth="yes"/>
      <point x="399" y="660"/>
      <point x="450" y="608"/>
      <point x="450" y="518" type="curve" smooth="yes"/>
      <point x="450" y="428"/>
      <point x="399" y="375"/>
      <point x="309" y="375" type="curve" smooth="yes"/>
    </contour>
  </outline>
</glyph>
<glyph name="less" format="1">
  <advance width="618"/>
  <unicode hex="003C"/>
  <note>
    less
  </note>
  <outline>
    <contour>
      <point x="501" y="182" type="line"/>
      <point x="224" y="330" type="line"/>
      <point x="501" y="478" type="line"/>
      <point x="501" y="580" type="line"/>
      <point x="117" y="375" type="line"/>
      <point x="117" y="285" type="line"/>
      <point x="501" y="80" type="line"/>
    </contour>
  </outline>
</glyph>
<glyph name="equal" format="1">
  <advance width="618"/>
  <unicode hex="003D"/>
  <note>
    equal
  </note>
  <outline>
    <contour>
      <point x="540" y="410" type="line"/>
      <point x="540" y="500" type="line"/>
      <point x="78" y="500" type="line"/>
      <point x="78" y="410" type="line"/>
    </contour>
    <contour>
      <point x="540" y="160" type="line"/>
      <point x="540" y="250" type="line"/>
      <point x="78" y="250" type="line"/>
      <point x="78" y="160" type="line"/>
    </contour>
  </outline>
</glyph>
<glyph name="greater" format="1">
  <advance width="618"/>
  <unicode hex="003E"/>
  <note>
    greater
  </note>
  <outline>
    <contour>
      <point x="501" y="285" type="line"/>
      <point x="501" y="375" type="line"/>
      <point x="117" y="580" type="line"/>
      <point x="117" y="478" type="line"/>
      <point x="393" y="330" type="line"/>
      <point x="117" y="182" type="line"/>
      <point x="117" y="80" type="line"/>
    </contour>
  </outline>
</glyph>
<glyph name="question" format="1">
  <advance width="618"/>
  <unicode hex="003F"/>
  <note>
    question
  </note>
  <outline>
    <contour>
      <point x="355" y="250" type="line"/>
      <point x="355" y="375" type="line"/>
      <point x="469" y="377"/>
      <point x="540" y="395"/>
      <point x="540" y="562" type="curve" smooth="yes"/>
      <point x="540" y="750"/>
      <point x="449" y="750"/>
      <point x="309" y="750" type="curve" smooth="yes"/>
      <point x="169" y="750"/>
      <point x="78" y="750"/>
      <point x="78" y="562" type="curve"/>
      <point x="168" y="562" type="line"/>
      <point x="168" y="660"/>
      <point x="219" y="660"/>
      <point x="309" y="660" type="curve" smooth="yes"/>
      <point x="399" y="660"/>
      <point x="450" y="660"/>
      <point x="450" y="562" type="curve" smooth="yes"/>
      <point x="450" y="466"/>
      <point x="401" y="465"/>
      <point x="314" y="465" type="curve" smooth="yes"/>
      <point x="265" y="465" type="line"/>
      <point x="265" y="250" type="line"/>
    </contour>
    <contour>
      <point x="354" y="-90"/>
      <point x="399" y="-45"/>
      <point x="399" y="0" type="curve" smooth="yes"/>
      <point x="399" y="45"/>
      <point x="354" y="90"/>
      <point x="309" y="90" type="curve" smooth="yes"/>
      <point x="264" y="90"/>
      <point x="219" y="45"/>
      <point x="219" y="0" type="curve" smooth="yes"/>
      <point x="219" y="-45"/>
      <point x="264" y="-90"/>
      <point x="309" y="-90" type="curve" smooth="yes"/>
    </contour>
  </outline>
</glyph>
<glyph name="A" format="1">
  <advance width="618"/>
  <unicode hex="0041"/>
  <note>
    A
  </note>
  <outline>
    <contour>
      <point x="171" y="0" type="line"/>
      <point x="221" y="205" type="line"/>
      <point x="397" y="205" type="line"/>
      <point x="447" y="0" type="line"/>
      <point x="540" y="0" type="line"/>
      <point x="357" y="750" type="line"/>
      <point x="261" y="750" type="line"/>
      <point x="78" y="0" type="line"/>
    </contour>
    <contour>
      <point x="309" y="564" type="line"/>
      <point x="375" y="295" type="line"/>
      <point x="243" y="295" type="line"/>
    </contour>
    <contour>
      <point x="539" y="0" type="move" name="ogonek"/>
    </contour>
    <contour>
      <point x="309" y="0" type="move" name="bottom"/>
    </contour>
    <contour>
      <point x="309" y="750" type="move" name="top"/>
    </contour>
  </outline>
</glyph>
<glyph name="E" format="1">
  <advance width="618"/>
  <unicode hex="0045"/>
  <note>
    E
  </note>
  <outline>
    <contour>
      <point x="540" y="0" type="line"/>
      <point x="540" y="90" type="line"/>
      <point x="168" y="90" type="line"/>
      <point x="168" y="330" type="line"/>
      <point x="354" y="330" type="line"/>
      <point x="354" y="420" type="line"/>
      <point x="168" y="420" type="line"/>
      <point x="168" y="660" type="line"/>
      <point x="540" y="660" type="line"/>
      <point x="540" y="750" type="line"/>
      <point x="78" y="750" type="line"/>
      <point x="78" y="0" type="line"/>
    </contour>
    <contour>
      <point x="539" y="0" type="move" name="ogonek"/>
    </contour>
    <contour>
      <point x="309" y="750" type="move" name="top"/>
    </contour>
    <contour>
      <point x="20" y="750" type="move" name="topleft"/>
    </contour>
    <contour>
      <point x="309" y="0" type="move" name="bottom"/>
    </contour>
  </outline>
</glyph>
<glyph name="G" format="1">
  <advance width="618"/>
  <unicode hex="0047"/>
  <note>
    G
  </note>
  <outline>
    <contour>
      <point x="399" y="0"/>
      <point x="540" y="0"/>
      <point x="540" y="160" type="curve" smooth="yes"/>
      <point x="540" y="285" type="line" smooth="yes"/>
      <point x="540" y="375"/>
      <point x="450" y="375"/>
      <point x="450" y="375" type="curve" smooth="yes"/>
      <point x="309" y="375" type="line"/>
      <point x="309" y="285" type="line"/>
      <point x="450" y="285" type="line"/>
      <point x="450" y="160" type="line" smooth="yes"/>
      <point x="450" y="90"/>
      <point x="357" y="90"/>
      <point x="311" y="90" type="curve" smooth="yes"/>
      <point x="309" y="90" type="line" smooth="yes"/>
      <point x="219" y="90"/>
      <point x="168" y="160"/>
      <point x="168" y="375" type="curve" smooth="yes"/>
      <point x="168" y="590"/>
      <point x="219" y="660"/>
      <point x="309" y="660" type="curve" smooth="yes"/>
      <point x="311" y="660" type="line" smooth="yes"/>
      <point x="357" y="660"/>
      <point x="450" y="660"/>
      <point x="450" y="590" type="curve"/>
      <point x="540" y="590" type="line"/>
      <point x="540" y="750"/>
      <point x="399" y="750"/>
      <point x="309" y="750" type="curve" smooth="yes"/>
      <point x="169" y="750"/>
      <point x="78" y="660"/>
      <point x="78" y="375" type="curve" smooth="yes"/>
      <point x="78" y="90"/>
      <point x="169" y="0"/>
      <point x="309" y="0" type="curve" smooth="yes"/>
    </contour>
    <contour>
      <point x="309" y="750" type="move" name="top"/>
    </contour>
    <contour>
      <point x="309" y="0" type="move" name="bottom"/>
    </contour>
  </outline>
</glyph>
<glyph name="L" format="1">
  <advance width="618"/>
  <unicode hex="004C"/>
  <note>
    L
  </note>
  <outline>
    <contour>
      <point x="540" y="0" type="line"/>
      <point x="540" y="87" type="line"/>
      <point x="168" y="90" type="line"/>
      <point x="168" y="750" type="line"/>
      <point x="78" y="750" type="line"/>
      <point x="78" y="0" type="line"/>
    </contour>
    <contour>
      <point x="309" y="0" type="move" name="bottom"/>
    </contour>
    <contour>
      <point x="123" y="750" type="move" name="top"/>
    </contour>
    <contour>
      <point x="597" y="750" type="move" name="topright"/>
    </contour>
    <contour>
      <point x="309" y="500" type="move" name="topcaroncombalt"/>
    </contour>
    <contour>
      <point x="204" y="375" type="move" name="center"/>
    </contour>
  </outline>
</glyph>
<glyph name="M" format="1">
  <advance width="618"/>
  <unicode hex="004D"/>
  <note>
    M
  </note>
  <outline>
    <contour>
      <point x="168" y="0" type="line"/>
      <point x="168" y="568" type="line"/>
      <point x="259" y="375" type="line"/>
      <point x="361" y="375" type="line"/>
      <point x="450" y="568" type="line"/>
      <point x="450" y="0" type="line"/>
      <point x="540" y="0" type="line"/>
      <point x="540" y="750" type="line"/>
      <point x="441" y="750" type="line"/>
      <point x="310" y="476" type="line"/>
      <point x="178" y="750" type="line"/>
      <point x="78" y="750" type="line"/>
      <point x="78" y="0" type="line"/>
    </contour>
    <contour>
      <point x="309" y="750" type="move" name="top"/>
    </contour>
    <contour>
      <point x="309" y="0" type="move" name="bottom"/>
    </contour>
  </outline>
</glyph>
<glyph name="O" format="1">
  <advance width="618"/>
  <unicode hex="004F"/>
  <note>
    O
  </note>
  <outline>
    <contour>
      <point x="450" y="0"/>
      <point x="540" y="0"/>
      <point x="540" y="375" type="curve" smooth="yes"/>
      <point x="540" y="750"/>
      <point x="450" y="750"/>
      <point x="310" y="750" type="curve" smooth="yes"/>
      <point x="170" y="750"/>
      <point x="78" y="750"/>
      <point x="78" y="375" type="curve" smooth="yes"/>
      <point x="78" y="0"/>
      <point x="170" y="0"/>
      <point x="310" y="0" type="curve" smooth="yes"/>
    </contour>
    <contour>
      <point x="220" y="90"/>
      <point x="168" y="90"/>
      <point x="168" y="375" type="curve" smooth="yes"/>
      <point x="168" y="660"/>
      <point x="220" y="660"/>
      <point x="310" y="660" type="curve" smooth="yes"/>
      <point x="400" y="660"/>
      <point x="450" y="660"/>
      <point x="450" y="375" type="curve" smooth="yes"/>
      <point x="450" y="90"/>
      <point x="400" y="90"/>
      <point x="310" y="90" type="curve" smooth="yes"/>
    </contour>
    <contour>
      <point x="309" y="0" type="move" name="bottom"/>
    </contour>
    <contour>
      <point x="555" y="10" type="move" name="ogonek"/>
    </contour>
    <contour>
      <point x="309" y="750" type="move" name="top"/>
    </contour>
    <contour>
      <point x="597" y="750" type="move" name="topright"/>
    </contour>
    <contour>
      <point x="20" y="750" type="move" name="topleft"/>
    </contour>
    <contour>
      <point x="309" y="375" type="move" name="center"/>
    </contour>
  </outline>
</glyph>
<glyph name="P" format="1">
  <advance width="618"/>
  <unicode hex="0050"/>
  <note>
    P
  </note>
  <outline>
    <contour>
      <point x="168" y="0" type="line"/>
      <point x="168" y="330" type="line"/>
      <point x="309" y="330" type="line" smooth="yes"/>
      <point x="539" y="330"/>
      <point x="540" y="540"/>
      <point x="540" y="540" type="curve" smooth="yes"/>
      <point x="540" y="540"/>
      <point x="539" y="750"/>
      <point x="309" y="750" type="curve" smooth="yes"/>
      <point x="78" y="750" type="line"/>
      <point x="78" y="0" type="line"/>
    </contour>
    <contour>
      <point x="168" y="660" type="line"/>
      <point x="309" y="660" type="line" smooth="yes"/>
      <point x="449" y="660"/>
      <point x="450" y="540"/>
      <point x="450" y="540" type="curve" smooth="yes"/>
      <point x="450" y="540"/>
      <point x="449" y="420"/>
      <point x="309" y="420" type="curve" smooth="yes"/>
      <point x="168" y="420" type="line"/>
    </contour>
    <contour>
      <point x="309" y="750" type="move" name="top"/>
    </contour>
    <contour>
      <point x="309" y="0" type="move" name="bottom"/>
    </contour>
  </outline>
</glyph>
<glyph name="R" format="1">
  <advance width="618"/>
  <unicode hex="0052"/>
  <note>
    R
  </note>
  <outline>
    <contour>
      <point x="168" y="0" type="line"/>
      <point x="168" y="330" type="line"/>
      <point x="280" y="330" type="line"/>
      <point x="441" y="0" type="line"/>
      <point x="540" y="0" type="line"/>
      <point x="378" y="337" type="line"/>
      <point x="408" y="337"/>
      <point x="540" y="398"/>
      <point x="540" y="540" type="curve"/>
      <point x="540" y="540"/>
      <point x="539" y="750"/>
      <point x="309" y="750" type="curve" smooth="yes"/>
      <point x="78" y="750" type="line"/>
      <point x="78" y="0" type="line"/>
    </contour>
    <contour>
      <point x="168" y="660" type="line"/>
      <point x="309" y="660" type="line" smooth="yes"/>
      <point x="449" y="660"/>
      <point x="450" y="540"/>
      <point x="450" y="540" type="curve" smooth="yes"/>
      <point x="450" y="540"/>
      <point x="449" y="420"/>
      <point x="309" y="420" type="curve" smooth="yes"/>
      <point x="168" y="420" type="line"/>
    </contour>
    <contour>
      <point x="309" y="750" type="move" name="top"/>
    </contour>
    <contour>
      <point x="309" y="0" type="move" name="bottom"/>
    </contour>
  </outline>
</glyph>
<glyph name="S" format="1">
  <advance width="618"/>
  <unicode hex="0053"/>
  <note>
    S
  </note>
  <outline>
    <contour>
      <point x="449" y="0"/>
      <point x="540" y="0"/>
      <point x="540" y="232" type="curve" smooth="yes"/>
      <point x="540" y="406"/>
      <point x="496" y="442"/>
      <point x="309" y="442" type="curve" smooth="yes"/>
      <point x="188" y="442"/>
      <point x="168" y="442"/>
      <point x="168" y="562" type="curve" smooth="yes"/>
      <point x="168" y="660"/>
      <point x="219" y="660"/>
      <point x="309" y="660" type="curve" smooth="yes"/>
      <point x="426" y="660"/>
      <point x="450" y="653"/>
      <point x="450" y="570" type="curve"/>
      <point x="540" y="570" type="line"/>
      <point x="540" y="716"/>
      <point x="449" y="750"/>
      <point x="309" y="750" type="curve" smooth="yes"/>
      <point x="169" y="750"/>
      <point x="78" y="750"/>
      <point x="78" y="562" type="curve" smooth="yes"/>
      <point x="78" y="352"/>
      <point x="169" y="352"/>
      <point x="309" y="352" type="curve" smooth="yes"/>
      <point x="436" y="352"/>
      <point x="450" y="348"/>
      <point x="450" y="232" type="curve" smooth="yes"/>
      <point x="450" y="90"/>
      <point x="399" y="90"/>
      <point x="309" y="90" type="curve" smooth="yes"/>
      <point x="199" y="90"/>
      <point x="168" y="102"/>
      <point x="168" y="180" type="curve"/>
      <point x="78" y="180" type="line"/>
      <point x="78" y="0"/>
      <point x="169" y="0"/>
      <point x="309" y="0" type="curve" smooth="yes"/>
    </contour>
    <contour>
      <point x="309" y="750" type="move" name="top"/>
    </contour>
    <contour>
      <point x="309" y="0" type="move" name="bottom"/>
    </contour>
  </outline>
</glyph>
<glyph name="U" format="1">
  <advance width="618"/>
  <unicode hex="0055"/>
  <note>
    U
  </note>
  <outline>
    <contour>
      <point x="539" y="0"/>
      <point x="540" y="0"/>
      <point x="540" y="230" type="curve" smooth="yes"/>
      <point x="540" y="750" type="line"/>
      <point x="450" y="750" type="line"/>
      <point x="450" y="230" type="line" smooth="yes"/>
      <point x="450" y="90"/>
      <point x="449" y="90"/>
      <point x="309" y="90" type="curve" smooth="yes"/>
      <point x="169" y="90"/>
      <point x="168" y="230"/>
      <point x="168" y="230" type="curve"/>
      <point x="168" y="750" type="line"/>
      <point x="78" y="750" type="line"/>
      <point x="78" y="230" type="line"/>
      <point x="78" y="230"/>
      <point x="79" y="0"/>
      <point x="309" y="0" type="curve" smooth="yes"/>
    </contour>
    <contour>
      <point x="496" y="22" type="move" name="ogonek"/>
    </contour>
    <contour>
      <point x="309" y="750" type="move" name="top"/>
    </contour>
    <contour>
      <point x="597" y="750" type="move" name="topright"/>
    </contour>
    <contour>
      <point x="309" y="0" type="move" name="bottom"/>
    </contour>
  </outline>
</glyph>
<glyph name="W" format="1">
  <advance width="618"/>
  <unicode hex="0057"/>
  <note>
    W
  </note>
  <outline>
    <contour>
      <point x="226" y="0" type="line"/>
      <point x="309" y="323" type="line"/>
      <point x="393" y="0" type="line"/>
      <point x="483" y="0" type="line"/>
      <point x="540" y="750" type="line"/>
      <point x="449" y="750" type="line"/>
      <point x="413" y="272" type="line"/>
      <point x="355" y="500" type="line"/>
      <point x="263" y="500" type="line"/>
      <point x="205" y="274" type="line"/>
      <point x="169" y="750" type="line"/>
      <point x="78" y="750" type="line"/>
      <point x="135" y="0" type="line"/>
    </contour>
    <contour>
      <point x="309" y="750" type="move" name="top"/>
    </contour>
    <contour>
      <point x="309" y="0" type="move" name="bottom"/>
    </contour>
  </outline>
</glyph>
<glyph name="X" format="1">
  <advance width="618"/>
  <unicode hex="0058"/>
  <note>
    X
  </note>
  <outline>
    <contour>
      <point x="178" y="0" type="line"/>
      <point x="309" y="272" type="line"/>
      <point x="441" y="0" type="line"/>
      <point x="540" y="0" type="line"/>
      <point x="359" y="375" type="line"/>
      <point x="540" y="750" type="line"/>
      <point x="441" y="750" type="line"/>
      <point x="309" y="478" type="line"/>
      <point x="178" y="750" type="line"/>
      <point x="78" y="750" type="line"/>
      <point x="259" y="375" type="line"/>
      <point x="78" y="0" type="line"/>
    </contour>
    <contour>
      <point x="309" y="750" type="move" name="top"/>
    </contour>
    <contour>
      <point x="309" y="0" type="move" name="bottom"/>
    </contour>
  </outline>
</glyph>
<glyph name="d" format="1">
  <advance width="618"/>
  <unicode hex="0064"/>
  <note>
    d
  </note>
  <outline>
    <contour>
      <point x="540" y="0" type="line"/>
      <point x="540" y="750" type="line"/>
      <point x="450" y="750" type="line"/>
      <point x="450" y="500" type="line"/>
      <point x="308" y="500" type="line" smooth="yes"/>
      <point x="78" y="500"/>
      <point x="78" y="250"/>
      <point x="78" y="250" type="curve" smooth="yes"/>
      <point x="78" y="250"/>
      <point x="78" y="0"/>
      <point x="308" y="0" type="curve" smooth="yes"/>
    </contour>
    <contour>
      <point x="168" y="90"/>
      <point x="168" y="250"/>
      <point x="168" y="250" type="curve" smooth="yes"/>
      <point x="168" y="250"/>
      <point x="168" y="410"/>
      <point x="308" y="410" type="curve" smooth="yes"/>
      <point x="450" y="410" type="line"/>
      <point x="450" y="90" type="line"/>
      <point x="308" y="90" type="line" smooth="yes"/>
    </contour>
    <contour>
      <point x="309" y="0" type="move" name="bottom"/>
    </contour>
    <contour>
      <point x="309" y="625" type="move" name="top"/>
    </contour>
    <contour>
      <point x="597" y="500" type="move" name="topright"/>
    </contour>
    <contour>
      <point x="462" y="250" type="move" name="center"/>
    </contour>
  </outline>
</glyph>
<glyph name="g" format="1">
  <advance width="618"/>
  <unicode hex="0067"/>
  <note>
    g
  </note>
  <outline>
    <contour>
      <point x="525" y="-250"/>
      <point x="540" y="-88"/>
      <point x="540" y="-45" type="curve" smooth="yes"/>
      <point x="540" y="250" type="line" smooth="yes"/>
      <point x="540" y="500"/>
      <point x="449" y="500"/>
      <point x="309" y="500" type="curve" smooth="yes"/>
      <point x="169" y="500"/>
      <point x="78" y="500"/>
      <point x="78" y="250" type="curve" smooth="yes"/>
      <point x="78" y="0"/>
      <point x="169" y="0"/>
      <point x="309" y="0" type="curve" smooth="yes"/>
      <point x="449" y="0"/>
      <point x="450" y="16"/>
      <point x="450" y="16" type="curve"/>
      <point x="450" y="-45" type="line" smooth="yes"/>
      <point x="450" y="-141"/>
      <point x="384" y="-160"/>
      <point x="309" y="-160" type="curve" smooth="yes"/>
      <point x="229" y="-160"/>
      <point x="187" y="-137"/>
      <point x="142" y="-115" type="curve"/>
      <point x="102" y="-190" type="line"/>
      <point x="164" y="-221"/>
      <point x="234" y="-250"/>
      <point x="309" y="-250" type="curve" smooth="yes"/>
    </contour>
    <contour>
      <point x="219" y="90"/>
      <point x="168" y="90"/>
      <point x="168" y="250" type="curve" smooth="yes"/>
      <point x="168" y="410"/>
      <point x="219" y="410"/>
      <point x="309" y="410" type="curve" smooth="yes"/>
      <point x="399" y="410"/>
      <point x="450" y="410"/>
      <point x="450" y="250" type="curve" smooth="yes"/>
      <point x="450" y="90"/>
      <point x="399" y="90"/>
      <point x="309" y="90" type="curve" smooth="yes"/>
    </contour>
    <contour>
      <point x="309" y="500" type="move" name="top"/>
    </contour>
    <contour>
      <point x="309" y="0" type="move" name="bottom"/>
    </contour>
  </outline>
</glyph>
<glyph name="l" format="1">
  <advance width="618"/>
  <unicode hex="006C"/>
  <note>
    l
  </note>
  <outline>
    <contour>
      <point x="540" y="0" type="line"/>
      <point x="540" y="90" type="line"/>
      <point x="354" y="90" type="line"/>
      <point x="354" y="750" type="line"/>
      <point x="174" y="750" type="line"/>
      <point x="174" y="660" type="line"/>
      <point x="264" y="660" type="line"/>
      <point x="264" y="90" type="line"/>
      <point x="78" y="90" type="line"/>
      <point x="78" y="0" type="line"/>
    </contour>
    <contour>
      <point x="308" y="0" type="move" name="bottom"/>
    </contour>
    <contour>
      <point x="308" y="750" type="move" name="top"/>
    </contour>
    <contour>
      <point x="597" y="500" type="move" name="topright"/>
    </contour>
    <contour>
      <point x="400" y="500" type="move" name="topcaroncombalt"/>
    </contour>
    <contour>
      <point x="308" y="500" type="move" name="center"/>
    </contour>
  </outline>
</glyph>
<glyph name="n" format="1">
  <advance width="618"/>
  <unicode hex="006E"/>
  <note>
    n
  </note>
  <outline>
    <contour>
      <point x="168" y="0" type="line"/>
      <point x="168" y="270" type="line" smooth="yes"/>
      <point x="168" y="410"/>
      <point x="169" y="410"/>
      <point x="309" y="410" type="curve" smooth="yes"/>
      <point x="449" y="410"/>
      <point x="450" y="270"/>
      <point x="450" y="270" type="curve"/>
      <point x="450" y="0" type="line"/>
      <point x="540" y="0" type="line"/>
      <point x="540" y="270" type="line"/>
      <point x="540" y="270"/>
      <point x="539" y="500"/>
      <point x="309" y="500" type="curve" smooth="yes"/>
      <point x="79" y="500"/>
      <point x="78" y="500"/>
      <point x="78" y="270" type="curve" smooth="yes"/>
      <point x="78" y="0" type="line"/>
    </contour>
    <contour>
      <point x="309" y="500" type="move" name="top"/>
    </contour>
    <contour>
      <point x="309" y="0" type="move" name="bottom"/>
    </contour>
  </outline>
</glyph>
<glyph name="r" format="1">
  <advance width="618"/>
  <unicode hex="0072"/>
  <note>
    r
  </note>
  <outline>
    <contour>
      <point x="168" y="0" type="line"/>
      <point x="168" y="250" type="line" smooth="yes"/>
      <point x="168" y="410"/>
      <point x="169" y="410"/>
      <point x="309" y="410" type="curve" smooth="yes"/>
      <point x="311" y="410" type="line" smooth="yes"/>
      <point x="357" y="410"/>
      <point x="450" y="410"/>
      <point x="450" y="340" type="curve"/>
      <point x="540" y="340" type="line"/>
      <point x="540" y="500"/>
      <point x="399" y="500"/>
      <point x="309" y="500" type="curve" smooth="yes"/>
      <point x="79" y="500"/>
      <point x="78" y="500"/>
      <point x="78" y="250" type="curve" smooth="yes"/>
      <point x="78" y="0" type="line"/>
    </contour>
    <contour>
      <point x="309" y="500" type="move" name="top"/>
    </contour>
    <contour>
      <point x="309" y="0" type="move" name="bottom"/>
    </contour>
  </outline>
</glyph>
<glyph name="s" format="1">
  <advance width="618"/>
  <unicode hex="0073"/>
  <note>
    s
  </note>
  <outline>
    <contour>
      <point x="449" y="0"/>
      <point x="540" y="0"/>
      <point x="540" y="148" type="curve" smooth="yes"/>
      <point x="540" y="294"/>
      <point x="418" y="295"/>
      <point x="313" y="295" type="curve" smooth="yes"/>
      <point x="300" y="295" type="line" smooth="yes"/>
      <point x="216" y="295"/>
      <point x="168" y="296"/>
      <point x="168" y="352" type="curve" smooth="yes"/>
      <point x="168" y="410"/>
      <point x="219" y="410"/>
      <point x="309" y="410" type="curve" smooth="yes"/>
      <point x="399" y="410"/>
      <point x="450" y="410"/>
      <point x="450" y="352" type="curve"/>
      <point x="540" y="352" type="line"/>
      <point x="540" y="500"/>
      <point x="449" y="500"/>
      <point x="309" y="500" type="curve" smooth="yes"/>
      <point x="169" y="500"/>
      <point x="78" y="500"/>
      <point x="78" y="352" type="curve" smooth="yes"/>
      <point x="78" y="206"/>
      <point x="200" y="205"/>
      <point x="305" y="205" type="curve" smooth="yes"/>
      <point x="318" y="205" type="line" smooth="yes"/>
      <point x="402" y="205"/>
      <point x="450" y="204"/>
      <point x="450" y="148" type="curve" smooth="yes"/>
      <point x="450" y="90"/>
      <point x="399" y="90"/>
      <point x="309" y="90" type="curve" smooth="yes"/>
      <point x="219" y="90"/>
      <point x="168" y="90"/>
      <point x="168" y="148" type="curve"/>
      <point x="78" y="148" type="line"/>
      <point x="78" y="0"/>
      <point x="169" y="0"/>
      <point x="309" y="0" type="curve" smooth="yes"/>
    </contour>
    <contour>
      <point x="309" y="500" type="move" name="top"/>
    </contour>
    <contour>
      <point x="309" y="0" type="move" name="bottom"/>
    </contour>
  </outline>
</glyph>
<glyph name="u" format="1">
  <advance width="618"/>
  <unicode hex="0075"/>
  <note>
    u
  </note>
  <outline>
    <contour>
      <point x="539" y="0"/>
      <point x="540" y="0"/>
      <point x="540" y="230" type="curve" smooth="yes"/>
      <point x="540" y="500" type="line"/>
      <point x="450" y="500" type="line"/>
      <point x="450" y="230" type="line" smooth="yes"/>
      <point x="450" y="90"/>
      <point x="449" y="90"/>
      <point x="309" y="90" type="curve" smooth="yes"/>
      <point x="169" y="90"/>
      <point x="168" y="230"/>
      <point x="168" y="230" type="curve"/>
      <point x="168" y="500" type="line"/>
      <point x="78" y="500" type="line"/>
      <point x="78" y="230" type="line"/>
      <point x="78" y="230"/>
      <point x="79" y="0"/>
      <point x="309" y="0" type="curve" smooth="yes"/>
    </contour>
    <contour>
      <point x="476" y="12" type="move" name="ogonek"/>
    </contour>
    <contour>
      <point x="309" y="500" type="move" name="top"/>
    </contour>
    <contour>
      <point x="597" y="500" type="move" name="topright"/>
    </contour>
    <contour>
      <point x="309" y="0" type="move" name="bottom"/>
    </contour>
  </outline>
</glyph>
<glyph name="x" format="1">
  <advance width="618"/>
  <unicode hex="0078"/>
  <note>
    x
  </note>
  <outline>
    <contour>
      <point x="188" y="0" type="line"/>
      <point x="309" y="172" type="line"/>
      <point x="430" y="0" type="line"/>
      <point x="539" y="0" type="line"/>
      <point x="364" y="250" type="line"/>
      <point x="539" y="500" type="line"/>
      <point x="430" y="500" type="line"/>
      <point x="309" y="328" type="line"/>
      <point x="188" y="500" type="line"/>
      <point x="78" y="500" type="line"/>
      <point x="254" y="250" type="line"/>
      <point x="78" y="0" type="line"/>
    </contour>
    <contour>
      <point x="309" y="500" type="move" name="top"/>
    </contour>
    <contour>
      <point x="309" y="0" type="move" name="bottom"/>
    </contour>
  </outline>
</glyph>
<glyph name="z" format="1">
  <advance width="618"/>
  <unicode hex="007A"/>
  <note>
    z
  </note>
  <outline>
    <contour>
      <point x="540" y="0" type="line"/>
      <point x="540" y="90" type="line"/>
      <point x="251" y="90" type="line"/>
      <point x="540" y="500" type="line"/>
      <point x="78" y="500" type="line"/>
      <point x="78" y="410" type="line"/>
      <point x="367" y="410" type="line"/>
      <point x="78" y="0" type="line"/>
    </contour>
    <contour>
      <point x="309" y="500" type="move" name="top"/>
    </contour>
    <contour>
      <point x="309" y="0" type="move" name="bottom"/>
    </contour>
  </outline>
</glyph>
<glyph name="braceleft" format="1">
  <advance width="618"/>
  <unicode hex="007B"/>
  <note>
    braceleft
  </note>
  <outline>
    <contour>
      <point x="501" y="0" type="line"/>
      <point x="355" y="0"/>
      <point x="354" y="0"/>
      <point x="354" y="142" type="curve" smooth="yes"/>
      <point x="354" y="240"/>
      <point x="354" y="297"/>
      <point x="336" y="330" type="curve"/>
      <point x="354" y="363"/>
      <point x="354" y="420"/>
      <point x="354" y="518" type="curve" smooth="yes"/>
      <point x="354" y="660"/>
      <point x="355" y="660"/>
      <point x="501" y="660" type="curve"/>
      <point x="501" y="750" type="line"/>
      <point x="355" y="750"/>
      <point x="264" y="750"/>
      <point x="264" y="518" type="curve" smooth="yes"/>
      <point x="264" y="376"/>
      <point x="263" y="375"/>
      <point x="117" y="375" type="curve"/>
      <point x="117" y="285" type="line"/>
      <point x="263" y="285"/>
      <point x="264" y="284"/>
      <point x="264" y="142" type="curve" smooth="yes"/>
      <point x="264" y="-90"/>
      <point x="355" y="-90"/>
      <point x="501" y="-90" type="curve"/>
    </contour>
  </outline>
</glyph>
<glyph name="braceright" format="1">
  <advance width="618"/>
  <unicode hex="007D"/>
  <note>
    braceright
  </note>
  <outline>
    <contour>
      <point x="263" y="-90"/>
      <point x="354" y="-90"/>
      <point x="354" y="142" type="curve" smooth="yes"/>
      <point x="354" y="284"/>
      <point x="355" y="285"/>
      <point x="501" y="285" type="curve"/>
      <point x="501" y="375" type="line"/>
      <point x="355" y="375"/>
      <point x="354" y="376"/>
      <point x="354" y="518" type="curve" smooth="yes"/>
      <point x="354" y="750"/>
      <point x="263" y="750"/>
      <point x="117" y="750" type="curve"/>
      <point x="117" y="660" type="line"/>
      <point x="263" y="660"/>
      <point x="264" y="660"/>
      <point x="264" y="518" type="curve" smooth="yes"/>
      <point x="264" y="420"/>
      <point x="264" y="363"/>
      <point x="282" y="330" type="curve"/>
      <point x="264" y="297"/>
      <point x="264" y="240"/>
      <point x="264" y="142" type="curve" smooth="yes"/>
      <point x="264" y="0"/>
      <point x="263" y="0"/>
      <point x="117" y="0" type="curve"/>
      <point x="117" y="-90" type="line"/>
    </contour>
  </outline>
</glyph>
<glyph name="sterling" format="1">
  <advance width="618"/>
  <unicode hex="00A3"/>
  <note>
    sterling
  </note>
  <outline>
    <contour>
      <point x="540" y="0" type="line"/>
      <point x="540" y="90" type="line"/>
      <point x="192" y="90" type="line"/>
      <point x="192" y="285" type="line"/>
      <point x="402" y="285" type="line"/>
      <point x="402" y="375" type="line"/>
      <point x="192" y="375" type="line"/>
      <point x="192" y="545" type="line" smooth="yes"/>
      <point x="192" y="641"/>
      <point x="258" y="660"/>
      <point x="333" y="660" type="curve" smooth="yes"/>
      <point x="413" y="660"/>
      <point x="455" y="637"/>
      <point x="500" y="615" type="curve"/>
      <point x="540" y="690" type="line"/>
      <point x="478" y="721"/>
      <point x="408" y="750"/>
      <point x="333" y="750" type="curve" smooth="yes"/>
      <point x="117" y="750"/>
      <point x="102" y="588"/>
      <point x="102" y="545" type="curve" smooth="yes"/>
      <point x="102" y="90" type="line"/>
      <point x="78" y="0" type="line"/>
    </contour>
  </outline>
</glyph>
<glyph name="copyright" format="1">
  <advance width="618"/>
  <unicode hex="00A9"/>
  <note>
    copyright
  </note>
  <outline>
    <contour>
      <point x="617" y="0"/>
      <point x="618" y="308"/>
      <point x="618" y="308" type="curve" smooth="yes"/>
      <point x="618" y="308"/>
      <point x="617" y="617"/>
      <point x="309" y="617" type="curve" smooth="yes"/>
      <point x="1" y="617"/>
      <point x="0" y="308"/>
      <point x="0" y="308" type="curve" smooth="yes"/>
      <point x="0" y="308"/>
      <point x="1" y="0"/>
      <point x="309" y="0" type="curve" smooth="yes"/>
    </contour>
    <contour>
      <point x="312" y="142" type="line" smooth="yes"/>
      <point x="372" y="142"/>
      <point x="466" y="143"/>
      <point x="466" y="249" type="curve"/>
      <point x="393" y="249" type="line"/>
      <point x="393" y="202"/>
      <point x="346" y="201"/>
      <point x="309" y="201" type="curve" smooth="yes"/>
      <point x="236" y="201"/>
      <point x="215" y="248"/>
      <point x="215" y="308" type="curve" smooth="yes"/>
      <point x="215" y="368"/>
      <point x="236" y="416"/>
      <point x="309" y="416" type="curve" smooth="yes"/>
      <point x="346" y="416"/>
      <point x="393" y="416"/>
      <point x="393" y="369" type="curve"/>
      <point x="466" y="369" type="line"/>
      <point x="466" y="475"/>
      <point x="372" y="476"/>
      <point x="312" y="476" type="curve" smooth="yes"/>
      <point x="309" y="476" type="line" smooth="yes"/>
      <point x="194" y="476"/>
      <point x="142" y="416"/>
      <point x="142" y="308" type="curve" smooth="yes"/>
      <point x="142" y="200"/>
      <point x="194" y="142"/>
      <point x="309" y="142" type="curve" smooth="yes"/>
    </contour>
    <contour>
      <point x="85" y="84"/>
      <point x="84" y="308"/>
      <point x="84" y="308" type="curve" smooth="yes"/>
      <point x="84" y="308"/>
      <point x="85" y="534"/>
      <point x="309" y="534" type="curve" smooth="yes"/>
      <point x="533" y="534"/>
      <point x="535" y="308"/>
      <point x="535" y="308" type="curve" smooth="yes"/>
      <point x="535" y="308"/>
      <point x="533" y="84"/>
      <point x="309" y="84" type="curve" smooth="yes"/>
    </contour>
  </outline>
</glyph>
<glyph name="ordfeminine" format="1">
  <advance width="618"/>
  <unicode hex="00AA"/>
  <note>
    ordfeminine
  </note>
  <outline>
    <contour>
      <point x="501" y="375" type="line"/>
      <point x="501" y="596" type="line" smooth="yes"/>
      <point x="501" y="628"/>
      <point x="487" y="750"/>
      <point x="309" y="750" type="curve" smooth="yes"/>
      <point x="247" y="750"/>
      <point x="189" y="729"/>
      <point x="138" y="705" type="curve"/>
      <point x="171" y="648" type="line"/>
      <point x="208" y="664"/>
      <point x="243" y="682"/>
      <point x="309" y="682" type="curve" smooth="yes"/>
      <point x="371" y="682"/>
      <point x="427" y="668"/>
      <point x="427" y="596" type="curve"/>
      <point x="309" y="596" type="line" smooth="yes"/>
      <point x="192" y="596"/>
      <point x="117" y="580"/>
      <point x="117" y="486" type="curve" smooth="yes"/>
      <point x="117" y="402"/>
      <point x="192" y="375"/>
      <point x="309" y="375" type="curve" smooth="yes"/>
    </contour>
    <contour>
      <point x="501" y="205" type="line"/>
      <point x="501" y="295" type="line"/>
      <point x="117" y="295" type="line"/>
      <point x="117" y="205" type="line"/>
    </contour>
    <contour>
      <point x="249" y="442"/>
      <point x="192" y="443"/>
      <point x="192" y="486" type="curve" smooth="yes"/>
      <point x="192" y="529"/>
      <point x="260" y="530"/>
      <point x="309" y="530" type="curve" smooth="yes"/>
      <point x="427" y="530" type="line"/>
      <point x="427" y="442" type="line"/>
      <point x="309" y="442" type="line" smooth="yes"/>
    </contour>
  </outline>
</glyph>
<glyph name="logicalnot" format="1">
  <advance width="618"/>
  <unicode hex="00AC"/>
  <note>
    logicalnot
  </note>
  <outline>
    <contour>
      <point x="540" y="125" type="line"/>
      <point x="540" y="375" type="line"/>
      <point x="78" y="375" type="line"/>
      <point x="78" y="285" type="line"/>
      <point x="450" y="285" type="line"/>
      <point x="450" y="125" type="line"/>
    </contour>
  </outline>
</glyph>
<glyph name="degree" format="1">
  <advance width="618"/>
  <unicode hex="00B0"/>
  <note>
    degree
  </note>
  <outline>
    <contour>
      <point x="313" y="375"/>
      <point x="501" y="376"/>
      <point x="501" y="562" type="curve" smooth="yes"/>
      <point x="501" y="750"/>
      <point x="309" y="750"/>
      <point x="309" y="750" type="curve" smooth="yes"/>
      <point x="309" y="750"/>
      <point x="117" y="750"/>
      <point x="117" y="562" type="curve" smooth="yes"/>
      <point x="117" y="376"/>
      <point x="305" y="375"/>
      <point x="309" y="375" type="curve" smooth="yes"/>
    </contour>
    <contour>
      <point x="309" y="458"/>
      <point x="207" y="458"/>
      <point x="207" y="562" type="curve" smooth="yes"/>
      <point x="207" y="666"/>
      <point x="309" y="667"/>
      <point x="309" y="667" type="curve" smooth="yes"/>
      <point x="309" y="667"/>
      <point x="411" y="666"/>
      <point x="411" y="562" type="curve" smooth="yes"/>
      <point x="411" y="458"/>
      <point x="309" y="458"/>
      <point x="309" y="458" type="curve" smooth="yes"/>
    </contour>
  </outline>
</glyph>
<glyph name="plusminus" format="1">
  <advance width="618"/>
  <unicode hex="00B1"/>
  <note>
    plusminus
  </note>
  <outline>
    <contour>
      <point x="354" y="330" type="line"/>
      <point x="354" y="468" type="line"/>
      <point x="540" y="468" type="line"/>
      <point x="540" y="558" type="line"/>
      <point x="354" y="558" type="line"/>
      <point x="354" y="696" type="line"/>
      <point x="264" y="696" type="line"/>
      <point x="264" y="558" type="line"/>
      <point x="78" y="558" type="line"/>
      <point x="78" y="468" type="line"/>
      <point x="264" y="468" type="line"/>
      <point x="264" y="330" type="line"/>
    </contour>
    <contour>
      <point x="540" y="150" type="line"/>
      <point x="540" y="240" type="line"/>
      <point x="78" y="240" type="line"/>
      <point x="78" y="150" type="line"/>
    </contour>
  </outline>
</glyph>
<glyph name="uni00B2" format="1">
  <advance width="618"/>
  <unicode hex="00B2"/>
  <note>
    uni00B2
  </note>
  <outline>
    <contour>
      <point x="477" y="300" type="line"/>
      <point x="477" y="376" type="line"/>
      <point x="300" y="376" type="line" smooth="yes"/>
      <point x="300" y="376"/>
      <point x="477" y="508"/>
      <point x="477" y="600" type="curve" smooth="yes"/>
      <point x="477" y="665"/>
      <point x="476" y="750"/>
      <point x="308" y="750" type="curve" smooth="yes"/>
      <point x="140" y="750"/>
      <point x="140" y="672"/>
      <point x="140" y="600" type="curve"/>
      <point x="229" y="600" type="line"/>
      <point x="229" y="642"/>
      <point x="229" y="661"/>
      <point x="308" y="661" type="curve" smooth="yes"/>
      <point x="387" y="661"/>
      <point x="388" y="643"/>
      <point x="388" y="600" type="curve" smooth="yes"/>
      <point x="388" y="526"/>
      <point x="140" y="376"/>
      <point x="140" y="376" type="curve"/>
      <point x="140" y="300" type="line"/>
    </contour>
  </outline>
</glyph>
<glyph name="uni00B3" format="1">
  <advance width="618"/>
  <unicode hex="00B3"/>
  <note>
    uni00B3
  </note>
  <outline>
    <contour>
      <point x="412" y="300"/>
      <point x="478" y="338"/>
      <point x="478" y="433" type="curve" smooth="yes"/>
      <point x="478" y="503"/>
      <point x="431" y="520"/>
      <point x="412" y="539" type="curve"/>
      <point x="431" y="558"/>
      <point x="462" y="580"/>
      <point x="462" y="630" type="curve" smooth="yes"/>
      <point x="462" y="702"/>
      <point x="412" y="750"/>
      <point x="309" y="750" type="curve" smooth="yes"/>
      <point x="206" y="750"/>
      <point x="157" y="702"/>
      <point x="157" y="630" type="curve"/>
      <point x="246" y="630" type="line"/>
      <point x="246" y="661"/>
      <point x="257" y="661"/>
      <point x="309" y="661" type="curve" smooth="yes"/>
      <point x="360" y="661"/>
      <point x="374" y="661"/>
      <point x="374" y="630" type="curve" smooth="yes"/>
      <point x="374" y="588"/>
      <point x="360" y="577"/>
      <point x="309" y="577" type="curve"/>
      <point x="309" y="502" type="line"/>
      <point x="374" y="502"/>
      <point x="389" y="487"/>
      <point x="389" y="433" type="curve" smooth="yes"/>
      <point x="389" y="389"/>
      <point x="374" y="389"/>
      <point x="309" y="389" type="curve" smooth="yes"/>
      <point x="244" y="389"/>
      <point x="229" y="389"/>
      <point x="229" y="433" type="curve"/>
      <point x="140" y="433" type="line"/>
      <point x="140" y="344"/>
      <point x="206" y="300"/>
      <point x="309" y="300" type="curve" smooth="yes"/>
    </contour>
  </outline>
</glyph>
<glyph name="paragraph" format="1">
  <advance width="618"/>
  <unicode hex="00B6"/>
  <note>
    paragraph
  </note>
  <outline>
    <contour>
      <point x="393" y="0" type="line"/>
      <point x="393" y="660" type="line"/>
      <point x="456" y="660" type="line"/>
      <point x="456" y="0" type="line"/>
      <point x="540" y="0" type="line"/>
      <point x="540" y="750" type="line"/>
      <point x="264" y="750" type="line" smooth="yes"/>
      <point x="78" y="750"/>
      <point x="78" y="540"/>
      <point x="78" y="540" type="curve" smooth="yes"/>
      <point x="78" y="540"/>
      <point x="78" y="330"/>
      <point x="264" y="330" type="curve" smooth="yes"/>
      <point x="309" y="330" type="line"/>
      <point x="309" y="0" type="line"/>
    </contour>
  </outline>
</glyph>
<glyph name="Eth" format="1">
  <advance width="618"/>
  <unicode hex="00D0"/>
  <note>
    Eth
  </note>
  <outline>
    <contour>
      <point x="354" y="330" type="line"/>
      <point x="354" y="420" type="line"/>
      <point x="168" y="420" type="line"/>
      <point x="168" y="330" type="line"/>
    </contour>
    <component base="D"/>
  </outline>
</glyph>
<glyph name="Thorn" format="1">
  <advance width="618"/>
  <unicode hex="00DE"/>
  <note>
    Thorn
  </note>
  <outline>
    <contour>
      <point x="168" y="0" type="line"/>
      <point x="168" y="251" type="line"/>
      <point x="309" y="251" type="line" smooth="yes"/>
      <point x="539" y="251"/>
      <point x="540" y="455"/>
      <point x="540" y="455" type="curve" smooth="yes"/>
      <point x="540" y="455"/>
      <point x="539" y="660"/>
      <point x="309" y="660" type="curve" smooth="yes"/>
      <point x="168" y="660" type="line"/>
      <point x="168" y="750" type="line"/>
      <point x="78" y="750" type="line"/>
      <point x="78" y="0" type="line"/>
    </contour>
    <contour>
      <point x="168" y="570" type="line"/>
      <point x="309" y="570" type="line" smooth="yes"/>
      <point x="449" y="570"/>
      <point x="450" y="455"/>
      <point x="450" y="455" type="curve" smooth="yes"/>
      <point x="450" y="455"/>
      <point x="449" y="341"/>
      <point x="309" y="341" type="curve" smooth="yes"/>
      <point x="168" y="341" type="line"/>
    </contour>
  </outline>
</glyph>
<glyph name="ae" format="1">
  <advance width="618"/>
  <unicode hex="00E6"/>
  <note>
    ae
  </note>
  <outline>
    <contour>
      <point x="540" y="0" type="line"/>
      <point x="540" y="74" type="line"/>
      <point x="477" y="74" type="line" smooth="yes"/>
      <point x="356" y="74"/>
      <point x="354" y="92"/>
      <point x="354" y="202" type="curve" smooth="yes"/>
      <point x="354" y="207" type="line"/>
      <point x="540" y="207" type="line"/>
      <point x="540" y="250" type="line" smooth="yes"/>
      <point x="540" y="500"/>
      <point x="535" y="500"/>
      <point x="405" y="500" type="curve" smooth="yes"/>
      <point x="339" y="500"/>
      <point x="309" y="500"/>
      <point x="293" y="470" type="curve"/>
      <point x="273" y="488"/>
      <point x="252" y="500"/>
      <point x="215" y="500" type="curve" smooth="yes"/>
      <point x="140" y="500"/>
      <point x="114" y="468"/>
      <point x="78" y="438" type="curve"/>
      <point x="114" y="375" type="line"/>
      <point x="152" y="405"/>
      <point x="174" y="414"/>
      <point x="215" y="414" type="curve" smooth="yes"/>
      <point x="263" y="414"/>
      <point x="264" y="400"/>
      <point x="264" y="340" type="curve" smooth="yes"/>
      <point x="264" y="293" type="line"/>
      <point x="215" y="293" type="line" smooth="yes"/>
      <point x="105" y="293"/>
      <point x="78" y="266"/>
      <point x="78" y="140" type="curve" smooth="yes"/>
      <point x="78" y="28"/>
      <point x="105" y="0"/>
      <point x="215" y="0" type="curve" smooth="yes"/>
    </contour>
    <contour>
      <point x="174" y="74"/>
      <point x="152" y="82"/>
      <point x="152" y="140" type="curve" smooth="yes"/>
      <point x="152" y="198"/>
      <point x="174" y="207"/>
      <point x="215" y="207" type="curve" smooth="yes"/>
      <point x="264" y="207" type="line"/>
      <point x="264" y="74" type="line"/>
      <point x="215" y="74" type="line" smooth="yes"/>
    </contour>
    <contour>
      <point x="354" y="354" type="line" smooth="yes"/>
      <point x="354" y="408"/>
      <point x="359" y="414"/>
      <point x="405" y="414" type="curve" smooth="yes"/>
      <point x="465" y="414"/>
      <point x="466" y="408"/>
      <point x="466" y="293" type="curve"/>
      <point x="354" y="293" type="line"/>
    </contour>
  </outline>
</glyph>
<glyph name="eth" format="1">
  <advance width="618"/>
  <unicode hex="00F0"/>
  <note>
    eth
  </note>
  <outline>
    <contour>
      <point x="449" y="0"/>
      <point x="540" y="104"/>
      <point x="540" y="232" type="curve" smooth="yes"/>
      <point x="540" y="375" type="line" smooth="yes"/>
      <point x="540" y="495"/>
      <point x="485" y="584"/>
      <point x="425" y="644" type="curve"/>
      <point x="497" y="686" type="line"/>
      <point x="466" y="750" type="line"/>
      <point x="365" y="696" type="line"/>
      <point x="314" y="733"/>
      <point x="269" y="750"/>
      <point x="264" y="750" type="curve"/>
      <point x="220" y="686" type="line"/>
      <point x="220" y="686"/>
      <point x="252" y="678"/>
      <point x="291" y="656" type="curve"/>
      <point x="220" y="617" type="line"/>
      <point x="220" y="528" type="line"/>
      <point x="359" y="608" type="line"/>
      <point x="407" y="565"/>
      <point x="450" y="502"/>
      <point x="450" y="414" type="curve"/>
      <point x="426" y="438"/>
      <point x="365" y="465"/>
      <point x="309" y="465" type="curve" smooth="yes"/>
      <point x="169" y="465"/>
      <point x="78" y="374"/>
      <point x="78" y="232" type="curve" smooth="yes"/>
      <point x="78" y="90"/>
      <point x="169" y="0"/>
      <point x="309" y="0" type="curve" smooth="yes"/>
    </contour>
    <contour>
      <point x="219" y="90"/>
      <point x="168" y="142"/>
      <point x="168" y="232" type="curve" smooth="yes"/>
      <point x="168" y="322"/>
      <point x="219" y="375"/>
      <point x="309" y="375" type="curve" smooth="yes"/>
      <point x="399" y="375"/>
      <point x="450" y="322"/>
      <point x="450" y="232" type="curve" smooth="yes"/>
      <point x="450" y="142"/>
      <point x="399" y="90"/>
      <point x="309" y="90" type="curve" smooth="yes"/>
    </contour>
  </outline>
</glyph>
<glyph name="idotless" format="1">
  <advance width="618"/>
  <unicode hex="0131"/>
  <outline>
    <contour>
      <point x="540" y="0" type="line"/>
      <point x="540" y="90" type="line"/>
      <point x="354" y="90" type="line"/>
      <point x="354" y="500" type="line"/>
      <point x="123" y="500" type="line"/>
      <point x="123" y="410" type="line"/>
      <point x="264" y="410" type="line"/>
      <point x="264" y="90" type="line"/>
      <point x="78" y="90" type="line"/>
      <point x="78" y="0" type="line"/>
    </contour>
    <contour>
      <point x="539" y="0" type="move" name="ogonek"/>
    </contour>
    <contour>
      <point x="309" y="0" type="move" name="bottom"/>
    </contour>
    <contour>
      <point x="309" y="500" type="move" name="top"/>
    </contour>
  </outline>
</glyph>
<glyph name="OE" format="1">
  <advance width="618"/>
  <unicode hex="0152"/>
  <note>
    OE
  </note>
  <outline>
    <contour>
      <point x="260" y="0"/>
      <point x="284" y="0"/>
      <point x="308" y="12" type="curve"/>
      <point x="308" y="0" type="line"/>
      <point x="540" y="0" type="line"/>
      <point x="540" y="90" type="line"/>
      <point x="398" y="90" type="line"/>
      <point x="398" y="330" type="line"/>
      <point x="494" y="330" type="line"/>
      <point x="494" y="420" type="line"/>
      <point x="398" y="420" type="line"/>
      <point x="398" y="660" type="line"/>
      <point x="540" y="660" type="line"/>
      <point x="540" y="750" type="line"/>
      <point x="308" y="750" type="line"/>
      <point x="308" y="738" type="line"/>
      <point x="296" y="750"/>
      <point x="260" y="750"/>
      <point x="238" y="750" type="curve" smooth="yes"/>
      <point x="168" y="750"/>
      <point x="78" y="750"/>
      <point x="78" y="375" type="curve" smooth="yes"/>
      <point x="78" y="0"/>
      <point x="168" y="0"/>
      <point x="238" y="0" type="curve" smooth="yes"/>
    </contour>
    <contour>
      <point x="218" y="90"/>
      <point x="168" y="90"/>
      <point x="168" y="375" type="curve" smooth="yes"/>
      <point x="168" y="660"/>
      <point x="218" y="660"/>
      <point x="238" y="660" type="curve" smooth="yes"/>
      <point x="256" y="660"/>
      <point x="308" y="660"/>
      <point x="308" y="375" type="curve" smooth="yes"/>
      <point x="308" y="90"/>
      <point x="264" y="90"/>
      <point x="238" y="90" type="curve" smooth="yes"/>
    </contour>
  </outline>
</glyph>
<glyph name="gravecomb" format="1">
  <advance width="618"/>
  <unicode hex="0300"/>
  <outline>
    <contour>
      <point x="335" y="545" type="line" smooth="yes"/>
      <point x="347" y="545"/>
      <point x="353" y="554"/>
      <point x="353" y="566" type="curve"/>
      <point x="351" y="611"/>
      <point x="289" y="665"/>
      <point x="231" y="719" type="curve"/>
      <point x="231" y="719"/>
      <point x="199" y="750"/>
      <point x="169" y="750" type="curve" smooth="yes"/>
      <point x="168" y="750" type="line" smooth="yes"/>
      <point x="150" y="750"/>
      <point x="135" y="733"/>
      <point x="135" y="715" type="curve" smooth="yes"/>
      <point x="136" y="685"/>
      <point x="169" y="654"/>
      <point x="169" y="654" type="curve"/>
      <point x="227" y="600"/>
      <point x="289" y="545"/>
      <point x="333" y="545" type="curve" smooth="yes"/>
    </contour>
    <contour>
      <point x="308" y="500" type="move" name="_top"/>
    </contour>
  </outline>
</glyph>
<glyph name="ringcomb" format="1">
  <advance width="618"/>
  <unicode hex="030A"/>
  <outline>
    <contour>
      <point x="434" y="545"/>
      <point x="434" y="648"/>
      <point x="434" y="648" type="curve" smooth="yes"/>
      <point x="434" y="648"/>
      <point x="434" y="750"/>
      <point x="309" y="750" type="curve" smooth="yes"/>
      <point x="186" y="750"/>
      <point x="184" y="651"/>
      <point x="184" y="648" type="curve" smooth="yes"/>
      <point x="184" y="645"/>
      <point x="186" y="545"/>
      <point x="309" y="545" type="curve" smooth="yes"/>
    </contour>
    <contour>
      <point x="247" y="608"/>
      <point x="247" y="648"/>
      <point x="247" y="648" type="curve" smooth="yes"/>
      <point x="247" y="648"/>
      <point x="247" y="688"/>
      <point x="309" y="688" type="curve" smooth="yes"/>
      <point x="371" y="688"/>
      <point x="371" y="648"/>
      <point x="371" y="648" type="curve" smooth="yes"/>
      <point x="371" y="648"/>
      <point x="371" y="608"/>
      <point x="309" y="608" type="curve" smooth="yes"/>
    </contour>
    <contour>
      <point x="308" y="500" type="move" name="_top"/>
    </contour>
  </outline>
</glyph>
<glyph name="caroncomb" format="1">
  <advance width="618"/>
  <unicode hex="030C"/>
  <outline>
    <contour>
      <point x="354" y="545" type="line"/>
      <point x="500" y="750" type="line"/>
      <point x="404" y="750" type="line"/>
      <point x="309" y="628" type="line"/>
      <point x="214" y="750" type="line"/>
      <point x="117" y="750" type="line"/>
      <point x="264" y="545" type="line"/>
    </contour>
    <contour>
      <point x="309" y="500" type="move" name="_top"/>
    </contour>
  </outline>
</glyph>
<glyph name="commaturnedabovecomb" format="1">
  <advance width="618"/>
  <unicode hex="0312"/>
  <outline>
    <component base="commaaccentcomb" xOffset="618" yOffset="500" xScale="-1" yScale="-1"/>
    <contour>
      <point x="308" y="500" type="move" name="_top"/>
    </contour>
  </outline>
</glyph>
<glyph name="slashlongcomb" format="1">
  <advance width="618"/>
  <unicode hex="0338"/>
  <outline>
    <contour>
      <point x="213" y="-125" type="line"/>
      <point x="501" y="625" type="line"/>
      <point x="405" y="625" type="line"/>
      <point x="117" y="-125" type="line"/>
    </contour>
    <contour>
      <point x="309" y="250" type="move" name="_center"/>
    </contour>
  </outline>
</glyph>
<glyph name="emdash" format="1">
  <advance width="618"/>
  <unicode hex="2014"/>
  <note>
    emdash
  </note>
  <outline>
    <contour>
      <point x="618" y="285" type="line"/>
      <point x="618" y="375" type="line"/>
      <point x="0" y="375" type="line"/>
      <point x="0" y="285" type="line"/>
    </contour>
  </outline>
</glyph>
<glyph name="bullet" format="1">
  <advance width="618"/>
  <unicode hex="2022"/>
  <note>
    bullet
  </note>
  <outline>
    <contour>
      <point x="309" y="147"/>
      <point x="492" y="147"/>
      <point x="492" y="330" type="curve" smooth="yes"/>
      <point x="492" y="512"/>
      <point x="309" y="512"/>
      <point x="309" y="512" type="curve" smooth="yes"/>
      <point x="309" y="512"/>
      <point x="126" y="512"/>
      <point x="126" y="330" type="curve" smooth="yes"/>
      <point x="126" y="147"/>
      <point x="309" y="147"/>
      <point x="309" y="147" type="curve" smooth="yes"/>
    </contour>
  </outline>
</glyph>
<glyph name="uni2587" format="1">
  <advance width="618"/>
  <unicode hex="2587"/>
  <note>
    uni2587
  </note>
  <outline>
    <contour>
      <point x="618" y="-375" type="line"/>
      <point x="618" y="718" type="line"/>
      <point x="0" y="718" type="line"/>
      <point x="0" y="-375" type="line"/>
    </contour>
  </outline>
</glyph>
<glyph name="uni25C3" format="1">
  <advance width="618"/>
  <unicode hex="25C3"/>
  <note>
    uni25C3
  </note>
  <outline>
    <contour>
      <point x="459" y="524" type="line"/>
      <point x="159" y="373" type="line"/>
      <point x="459" y="224" type="line"/>
    </contour>
    <contour>
      <point x="248" y="373" type="line"/>
      <point x="419" y="460" type="line"/>
      <point x="419" y="288" type="line"/>
    </contour>
  </outline>
</glyph>
<glyph name="uni25FB" format="1">
  <advance width="618"/>
  <unicode hex="25FB"/>
  <note>
    uni25FB
  </note>
  <outline>
    <contour>
      <point x="559" y="125" type="line"/>
      <point x="559" y="625" type="line"/>
      <point x="59" y="625" type="line"/>
      <point x="59" y="125" type="line"/>
    </contour>
    <contour>
      <point x="119" y="565" type="line"/>
      <point x="499" y="565" type="line"/>
      <point x="499" y="185" type="line"/>
      <point x="119" y="185" type="line"/>
    </contour>
  </outline>
</glyph>
<glyph name="uni25FC" format="1">
  <advance width="618"/>
  <unicode hex="25FC"/>
  <note>
    uni25FC
  </note>
  <outline>
    <contour>
      <point x="559" y="125" type="line"/>
      <point x="559" y="625" type="line"/>
      <point x="59" y="625" type="line"/>
      <point x="59" y="125" type="line"/>
    </contour>
  </outline>
</glyph>
<glyph name="uni26A1" format="1">
  <advance width="618"/>
  <unicode hex="26A1"/>
  <note>
    uni26A1
  </note>
  <outline>
    <contour>
      <point x="538" y="300" type="line"/>
      <point x="345" y="300" type="line"/>
      <point x="498" y="750" type="line"/>
      <point x="80" y="200" type="line"/>
      <point x="273" y="200" type="line"/>
      <point x="120" y="-250" type="line"/>
    </contour>
  </outline>
</glyph>
<glyph name="uniE0A2" format="1">
  <advance width="618"/>
  <unicode hex="E0A2"/>
  <note>
    uniE0A2
  </note>
  <outline>
    <contour>
      <point x="463" y="-192" type="line" smooth="yes"/>
      <point x="518" y="-192"/>
      <point x="546" y="-165"/>
      <point x="546" y="-109" type="curve" smooth="yes"/>
      <point x="546" y="299" type="line" smooth="yes"/>
      <point x="546" y="359"/>
      <point x="522" y="388"/>
      <point x="475" y="388" type="curve"/>
      <point x="475" y="563" type="line" smooth="yes"/>
      <point x="475" y="617"/>
      <point x="459" y="662"/>
      <point x="426" y="698" type="curve" smooth="yes"/>
      <point x="395" y="732"/>
      <point x="356" y="750"/>
      <point x="309" y="750" type="curve" smooth="yes"/>
      <point x="262" y="750"/>
      <point x="223" y="732"/>
      <point x="192" y="698" type="curve" smooth="yes"/>
      <point x="159" y="662"/>
      <point x="143" y="617"/>
      <point x="143" y="563" type="curve" smooth="yes"/>
      <point x="143" y="388" type="line"/>
      <point x="96" y="388"/>
      <point x="72" y="359"/>
      <point x="72" y="299" type="curve" smooth="yes"/>
      <point x="72" y="-109" type="line" smooth="yes"/>
      <point x="72" y="-165"/>
      <point x="99" y="-192"/>
      <point x="154" y="-192" type="curve" smooth="yes"/>
    </contour>
    <contour>
      <point x="276" y="139" type="line"/>
      <point x="250" y="153"/>
      <point x="236" y="174"/>
      <point x="236" y="204" type="curve" smooth="yes"/>
      <point x="236" y="224"/>
      <point x="244" y="242"/>
      <point x="258" y="256" type="curve" smooth="yes"/>
      <point x="272" y="270"/>
      <point x="289" y="278"/>
      <point x="309" y="278" type="curve" smooth="yes"/>
      <point x="329" y="278"/>
      <point x="346" y="270"/>
      <point x="360" y="256" type="curve" smooth="yes"/>
      <point x="374" y="242"/>
      <point x="381" y="224"/>
      <point x="381" y="204" type="curve" smooth="yes"/>
      <point x="381" y="174"/>
      <point x="367" y="153"/>
      <point x="341" y="139" type="curve"/>
      <point x="341" y="-52" type="line"/>
      <point x="276" y="-52" type="line"/>
    </contour>
    <contour>
      <point x="222" y="563" type="line" smooth="yes"/>
      <point x="222" y="597"/>
      <point x="230" y="623"/>
      <point x="246" y="643" type="curve" smooth="yes"/>
      <point x="262" y="663"/>
      <point x="283" y="673"/>
      <point x="309" y="673" type="curve" smooth="yes"/>
      <point x="335" y="673"/>
      <point x="355" y="663"/>
      <point x="371" y="643" type="curve" smooth="yes"/>
      <point x="387" y="623"/>
      <point x="395" y="597"/>
      <point x="395" y="563" type="curve" smooth="yes"/>
      <point x="395" y="388" type="line"/>
      <point x="222" y="388" type="line"/>
    </contour>
  </outline>
</glyph>
<glyph name="caroncomb.alt" format="1">
  <advance width="618"/>
  <outline>
    <contour>
      <point x="354" y="545" type="line"/>
      <point x="500" y="750" type="line"/>
      <point x="404" y="750" type="line"/>
      <point x="308" y="628" type="line"/>
      <point x="308" y="545" type="line"/>
    </contour>
    <contour>
      <point x="308" y="500" type="move" name="_topcaroncombalt"/>
    </contour>
  </outline>
</glyph>
